:SAMPLES-PER-SECOND 24
:FULLY-SPECIFIED
:DEGREES
386
root  -3.49515 39.88 44.754 -170.074 75.4781 -171.005
RightUpLeg  0.188487 -13.39 -17.443
RightLeg  18.7152 7.23186 2.55212
RightFoot  -0.886731 -1.8461 19.9194
RightToes  -1.46203e-006 3.27826e-006 1.63871e-007
Spine  2.31432 5.33214 5.74127
Spine1  16.8541 9.27103 -11.0522
HEad  -25.7083 47.6282 -30.0498
LeftShoulder1  1.77889 -2.86367 -21.5777
LeftArm  9.08716 23.9523 -36.7555
LeftForeArm  99.0649 -80.225 -92.0178
LeftHand  -0.281921 2.70331 11.8832
RightShoulder  3.5259 6.01562 31.1474
RightArm  3.9812 -23.5433 33.4148
RightForeArm  41.7366 71.5748 30.4504
RightHand  -0.259549 -11.0188 3.93723
LeftUpLeg  -16.7661 17.3606 20.8412
LeftLeg  32.7647 -6.62069 -4.21296
LeftFoot  6.10152 1.71845 -11.4589
LeftToes  1.24767e-006 1.47042e-008 1.32732e-009
387
root  -3.77897 39.5401 44.7387 -158.588 78.3995 -161.295
RightUpLeg  -5.1665 -11.6899 -15.0614
RightLeg  23.0638 4.70425 1.98311
RightFoot  -1.7502 -1.7073 20.0168
RightToes  -1.46203e-006 3.27826e-006 1.63871e-007
Spine  2.02615 7.16814 9.3014
Spine1  17.592 12.3091 -14.3849
HEad  -28.0866 45.221 -31.4518
LeftShoulder1  1.78389 -2.93397 -21.3354
LeftArm  8.48594 19.8259 -35.1092
LeftForeArm  96.4688 -79.9551 -94.732
LeftHand  -0.381545 2.53706 15.3168
RightShoulder  3.2431 5.73815 29.1653
RightArm  8.52832 -24.0651 33.3081
RightForeArm  37.2853 69.4245 26.9049
RightHand  -0.543444 -9.72065 12.4895
LeftUpLeg  -18.2165 23.1956 24.0449
LeftLeg  30.361 -5.55628 -3.15335
LeftFoot  1.22941 1.09297 -9.97348
LeftToes  1.24767e-006 1.47042e-008 1.32732e-009
388
root  -4.0615 38.5015 44.8241 -146.597 79.6586 -151.065
RightUpLeg  -9.63366 -10.4303 -13.2064
RightLeg  27.581 3.31144 1.66376
RightFoot  -3.99597 -1.42204 21.6104
RightToes  -1.46203e-006 3.27826e-006 1.63871e-007
Spine  2.7596 8.15997 11.0948
Spine1  16.038 13.8939 -16.6535
HEad  -28.7345 43.8673 -31.1072
LeftShoulder1  1.86259 -3.12735 -21.7386
LeftArm  5.64233 16.7851 -33.7547
LeftForeArm  81.8684 -79.8284 -80.5906
LeftHand  -0.373267 2.82375 16.6451
RightShoulder  3.11542 5.61213 28.2262
RightArm  13.0674 -22.4785 33.0322
RightForeArm  31.6921 67.027 23.9639
RightHand  -0.410153 -8.01385 15.075
LeftUpLeg  -20.3197 29.3114 27.228
LeftLeg  26.3502 -4.22315 -1.90742
LeftFoot  -1.59855 0.659742 -7.62982
LeftToes  1.24767e-006 1.47042e-008 1.32732e-009
389
root  -4.41948 37.009 44.7262 -164.858 77.0369 -169.557
RightUpLeg  -10.2652 -14.277 -17.9704
RightLeg  34.0536 5.06459 3.45887
RightFoot  -12.8813 0.256159 24.3112
RightToes  -1.46203e-006 3.27826e-006 1.63871e-007
Spine  6.04491 6.26904 7.0926
Spine1  13.8462 11.6855 -16.4222
HEad  -30.772 41.9489 -31.1565
LeftShoulder1  2.06239 -3.44378 -23.4241
LeftArm  2.26727 12.015 -31.2575
LeftForeArm  60.5957 -78.3 -58.4891
LeftHand  -0.270158 3.65778 17.7063
RightShoulder  3.17072 5.6973 28.5169
RightArm  14.9989 -19.2104 32.8271
RightForeArm  29.8749 66.2144 23.1266
RightHand  -0.356763 -7.96137 13.3603
LeftUpLeg  -23.5961 28.0384 25.0242
LeftLeg  21.1999 -1.9412 -0.641872
LeftFoot  -5.56698 0.40062 -7.34575
LeftToes  1.24767e-006 1.47042e-008 1.32732e-009
390
root  -5.09951 35.4603 44.0337 178.921 66.4353 175.083
RightUpLeg  -5.66341 -24.5958 -27.8515
RightLeg  40.6386 7.9856 7.03354
RightFoot  -21.4847 2.15681 25.5858
RightToes  -1.46203e-006 3.27826e-006 1.63871e-007
Spine  11.2695 0.924092 3.75155
Spine1  13.2331 5.5977 -14.8717
HEad  -35.5182 38.918 -32.6815
LeftShoulder1  2.29905 -3.77304 -25.4308
LeftArm  -0.0842132 1.76187 -28.5682
LeftForeArm  36.9645 -73.5157 -37.3968
LeftHand  -0.280906 3.805 20.067
RightShoulder  3.30112 5.74471 29.7815
RightArm  14.2253 -12.2912 32.7177
RightForeArm  30.7554 65.6125 22.2349
RightHand  -0.297039 -8.85249 8.02216
LeftUpLeg  -30.5718 18.6845 19.3322
LeftLeg  18.1403 1.71885 0.8962
LeftFoot  -6.45633 0.395547 -8.4365
LeftToes  1.24767e-006 1.47042e-008 1.32732e-009
391
root  -5.63547 34.1485 43.1 179.81 62.5322 176.526
RightUpLeg  -4.16505 -28.3896 -31.9695
RightLeg  45.325 9.92432 10.2946
RightFoot  -24.8836 3.00375 26.303
RightToes  -1.46203e-006 3.27826e-006 1.63871e-007
Spine  13.9671 -0.840096 3.27012
Spine1  14.0874 3.39035 -13.5101
HEad  -40.0223 37.1383 -34.1499
LeftShoulder1  2.33668 -3.99794 -24.9714
LeftArm  -1.56031 -7.71467 -28.5583
LeftForeArm  26.1503 -68.9804 -28.012
LeftHand  -0.418365 3.12943 21.2262
RightShoulder  3.40191 5.78673 30.7216
RightArm  10.9235 -3.10352 33.2624
RightForeArm  29.8538 63.7025 20.1967
RightHand  -0.0876116 -8.08921 1.75558
LeftUpLeg  -37.4385 21.4938 16.0415
LeftLeg  21.7701 -2.82045 -0.902938
LeftFoot  -3.74501 0.796483 -11.6296
LeftToes  1.24767e-006 1.47042e-008 1.32732e-009
